<svg id="Layer_1" data-name="Layer 1" xmlns="http://www.w3.org/2000/svg" viewBox="0 0 117.04 145.09"><defs><style>.cls-1{fill:none;stroke:#010202;stroke-miterlimit:10;stroke-width:3px;}</style></defs><path class="cls-1" d="M48.55,130.52a7.76,7.76,0,0,1,.65-3.69c.43-.72,1.35-1.09,2.74-1.09H70.67c1.46,0,2.4.3,2.84.9a5.66,5.66,0,0,1,.64,3.18v4.49a16.39,16.39,0,0,0,1,6.31,11.34,11.34,0,0,0,2.74,4,10,10,0,0,0,3.68,2.2,13.23,13.23,0,0,0,4,.64,12,12,0,0,0,4.48-.84,11,11,0,0,0,3.64-2.39,12,12,0,0,0,3.43-8.62,18.4,18.4,0,0,0-1-6.42,19.63,19.63,0,0,0-3.27-5.57,38,38,0,0,0-5.53-5.53q-3.39-2.84-8-6.63-8.07-6.36-13.89-11.2a63,63,0,0,1-9.62-9.76,33.82,33.82,0,0,1-5.57-10.86,50.66,50.66,0,0,1-1.8-14.49A33.29,33.29,0,0,1,61.25,37.62,35.86,35.86,0,0,1,73,31.4a39.78,39.78,0,0,1,11.7-1.94A39.19,39.19,0,0,1,99.2,32.05a33.46,33.46,0,0,1,11.46,7.32,32.58,32.58,0,0,1,7.52,11.45,40,40,0,0,1,2.69,15V71.6a4.17,4.17,0,0,1-.75,2.94c-.5.5-1.58.75-3.23.75H98.66c-1.33,0-2.18-.27-2.54-.8a5.37,5.37,0,0,1-.55-2.89V65.92a16.41,16.41,0,0,0-.7-4.88,11.58,11.58,0,0,0-2-4,9.55,9.55,0,0,0-3.39-2.69,10.57,10.57,0,0,0-4.73-1,11.18,11.18,0,0,0-3.83.7,9.82,9.82,0,0,0-3.49,2.19,11.35,11.35,0,0,0-2.54,3.89,15.36,15.36,0,0,0-1,5.77,17.45,17.45,0,0,0,1,6.28,18.57,18.57,0,0,0,3,5,31.19,31.19,0,0,0,4.73,4.53c1.86,1.46,3.92,3.06,6.18,4.78Q96,91.86,102.24,96.9a70.71,70.71,0,0,1,10.86,10.81,46.78,46.78,0,0,1,7.32,12.8A45.76,45.76,0,0,1,123.11,137a32.67,32.67,0,0,1-2.74,13.25,33.69,33.69,0,0,1-7.67,11,36.92,36.92,0,0,1-11.85,7.52,44.86,44.86,0,0,1-31.53-.15,33.46,33.46,0,0,1-11.5-7.92,32.92,32.92,0,0,1-6.93-11.4,40.35,40.35,0,0,1-2.29-13.5Z" transform="translate(-46.98 -27.95)"/><path class="cls-1" d="M135.21,35.39a4.26,4.26,0,0,1,.9-2.84,3.23,3.23,0,0,1,2.59-1h20.42a3.07,3.07,0,0,1,2.54,1,4.44,4.44,0,0,1,.85,2.84V165.62q0,3.8-3.39,3.79H138.7c-2.32,0-3.49-1.27-3.49-3.79Z" transform="translate(-46.98 -27.95)"/></svg>