<svg id="Layer_1" data-name="Layer 1" xmlns="http://www.w3.org/2000/svg" viewBox="0 0 113.95 142.14"><defs><style>.cls-1{fill:#010101;}</style></defs><path className="cls-1" d="M207.65,287.9a7.73,7.73,0,0,1,.65-3.69c.43-.72,1.35-1.09,2.74-1.09h18.73c1.46,0,2.4.3,2.84.9a5.71,5.71,0,0,1,.64,3.18v4.49A16.22,16.22,0,0,0,234.3,298a11.18,11.18,0,0,0,2.74,4,9.9,9.9,0,0,0,3.68,2.2,12.9,12.9,0,0,0,4,.64,11.9,11.9,0,0,0,4.48-.84,10.87,10.87,0,0,0,3.64-2.39,12,12,0,0,0,3.43-8.62,18.63,18.63,0,0,0-1-6.42A19.88,19.88,0,0,0,252,281a38.91,38.91,0,0,0-5.53-5.53q-3.39-2.83-8-6.63-8.07-6.36-13.89-11.2a62,62,0,0,1-9.62-9.76,33.72,33.72,0,0,1-5.57-10.86,50.41,50.41,0,0,1-1.8-14.49q0-9.66,3.64-16.49A34.63,34.63,0,0,1,220.35,195a35.86,35.86,0,0,1,11.76-6.22,39.86,39.86,0,0,1,11.7-1.94,39.34,39.34,0,0,1,14.49,2.59,33.49,33.49,0,0,1,11.46,7.32,32.84,32.84,0,0,1,7.52,11.45,40.13,40.13,0,0,1,2.69,15v5.78a4.23,4.23,0,0,1-.75,2.94c-.5.5-1.58.75-3.23.75H257.76c-1.33,0-2.18-.27-2.54-.8a5.37,5.37,0,0,1-.55-2.89v-5.68a16.55,16.55,0,0,0-.7-4.88,11.81,11.81,0,0,0-2-4,9.67,9.67,0,0,0-3.39-2.69,10.72,10.72,0,0,0-4.73-1,11.38,11.38,0,0,0-3.83.7,9.8,9.8,0,0,0-3.49,2.19,11.37,11.37,0,0,0-2.54,3.89,15.05,15.05,0,0,0-1,5.77,17.21,17.21,0,0,0,1.05,6.28,18.14,18.14,0,0,0,3,5,30.69,30.69,0,0,0,4.73,4.53c1.86,1.46,3.92,3.06,6.18,4.78q7.17,5.38,13.39,10.41a71.65,71.65,0,0,1,10.86,10.81,47.33,47.33,0,0,1,7.32,12.8,46.06,46.06,0,0,1,2.69,16.48,32.69,32.69,0,0,1-2.74,13.25,33.82,33.82,0,0,1-7.67,11,36.76,36.76,0,0,1-11.85,7.52,44.81,44.81,0,0,1-31.53-.15,33.42,33.42,0,0,1-11.5-7.92,32.73,32.73,0,0,1-6.93-11.4,40.09,40.09,0,0,1-2.29-13.5Z" transform="translate(-207.65 -186.8)"/><path className="cls-1" d="M294.31,192.77a4.22,4.22,0,0,1,.9-2.84,3.25,3.25,0,0,1,2.59-1h20.42a3.1,3.1,0,0,1,2.54,1,4.43,4.43,0,0,1,.85,2.84V323q0,3.8-3.39,3.79H297.8q-3.49,0-3.49-3.79Z" transform="translate(-207.65 -186.8)"/></svg>